#!OML:ASF E:/inclinewalkrobotboard/Project1/Captureday1/Session1/subject1.ASF
:FULLY-SPECIFIED
:DEGREES
126
root 0 0 0 2.0786387412681964 1.2270954247100834 -1.018139065057984
lowerback 10.990971016151066 -0.29460931973670756 -2.2896946582042013
upperback 2.012490729085489 -0.6936211102027752 1.1007967539810808
thorax -3.9324409208183435 -0.25361521384151864 2.419563200756358
lowerneck -6.5596295216118214 -1.9726842600291061 -0.17500810677458878
upperneck 24.490721726905022 -3.0596627383675967 2.386285555468977
head 9.240659284132075 -1.279586896658748 0.5912620632614697
rclavicle 5.1723577031293835E-15 2.6447438377875975E-15
rhumerus -8.240671903979678 13.830113594664834 -50.77405633899923
rradius 106.66755779362519
rwrist -42.58504232519992
rhand -4.0989500863305395 -54.64720434689595
rfingers 7.125020000000006
rthumb 21.66882742800474 -83.25849621038742
lclavicle 1.802125988394581E-15 3.839489208958637E-15
lhumerus -44.484962324934614 -7.5282168009954376 85.38018890884264
lradius 61.8758461944636
lwrist 7.204054553694117
lhand -11.694063043890601 -28.95581223572663
lfingers 7.125020000000018
lthumb 14.359602454579168 0.6035429294709367
rfemur 1.2171589733749864 -0.5313641130978288 -2.9930964672858114
rtibia -4.619974670107869
rfoot 0.9111155205518573 0.6536330506933923
rtoes -0.7458115415096531
lfemur 0.8621523741094519 -6.441808126128635 -10.186505630605403
ltibia 22.314331145505257
lfoot -28.19500873258494 14.334022589560167
ltoes -60.05949273229905
127
root 0 0 0 2.079574534459715 1.226891436752712 -1.0174186731732786
lowerback 10.990173708912591 -0.29519729319425114 -2.289873284720005
upperback 2.0094428981035213 -0.6944415789910392 1.1008969425899036
thorax -3.935226348582269 -0.2540136180495417 2.4198166487224215
lowerneck -6.564931806800885 -1.971841536016782 -0.17483077957210558
upperneck 24.496451505079207 -3.0584376288836848 2.3837199815485235
head 9.243506342802332 -1.2790549341433652 0.5903750557578571
rclavicle 5.184058902848861E-15 2.6411468944436903E-15
rhumerus -8.252902226529493 13.81742550661916 -50.779999604551186
rradius 106.6465582421524
rwrist -42.57869056777427
rhand -4.097830806074949 -54.65045744960476
rfingers 7.125020000000006
rthumb 21.669887603051293 -83.26186999417264
lclavicle 1.8160670613771804E-15 3.8327865712594775E-15
lhumerus -44.48696437487674 -7.525360177323343 85.3800460032833
lradius 61.872846548954065
lwrist 7.200751307453922
lhand -11.692722811333145 -28.958016820148725
lfingers 7.125020000000018
lthumb 14.36093530980979 0.6013382620208425
rfemur 1.2183621696148856 -0.531868361120079 -2.995597791671928
rtibia -4.62343576410548
rfoot 0.9120914461173815 0.6542967324493012
rtoes -0.7461660818188209
lfemur 0.86594988001558 -6.445130686098201 -10.189209277906489
ltibia 22.312763416914272
lfoot -28.194605508686095 14.33375490208671
ltoes -60.04893054552488
128
root 0 0 0 2.0794248387364505 1.2261711762739727 -1.0166188455562613
lowerback 10.987924468528437 -0.2957142658206243 -2.290115975211366
upperback 2.0064695270917436 -0.6951595885521724 1.1011727324918563
thorax -3.9371385610370373 -0.2543470730474202 2.4203389033280525
lowerneck -6.569628228241527 -1.97103472310511 -0.17481502559498374
upperneck 24.503459381534107 -3.0573151984487463 2.3819267926021013
head 9.246631697836586 -1.2785282969721694 0.589755735090592
rclavicle 5.188430940935803E-15 2.635574382838503E-15
rhumerus -8.265664752766762 13.805991694416399 -50.78660675839869
rradius 106.6236685509546
rwrist -42.57486977039602
rhand -4.096036258254044 -54.6533481883514
rfingers 7.125020000000006
rthumb 21.671595761788343 -83.26472354557609
lclavicle 1.8193694423337956E-15 3.826259628680825E-15
lhumerus -44.48761114974683 -7.523602710525278 85.38062921559575
lradius 61.87036097923185
lwrist 7.198395095248705
lhand -11.691864104424447 -28.95941725397741
lfingers 7.125020000000018
lthumb 14.361761860518985 0.5999214374698667
rfemur 1.2189700038826023 -0.5322348144419848 -2.996967765023337
rtibia -4.624674344646628
rfoot 0.9129514260192799 0.6547494367864464
rtoes -0.7461144463586205
lfemur 0.8673681022713309 -6.446137827363932 -10.191110091166639
ltibia 22.31297944008727
lfoot -28.192879627335177 14.33226408163665
ltoes -60.040633457819915
129
root 0 0 0 2.0792476642107363 1.2255822432877217 -1.0160075059170697
lowerback 10.986204723581109 -0.2960900643053458 -2.290290815614833
upperback 2.004299198292905 -0.6956796436463364 1.101403489808775
thorax -3.9384885188980716 -0.25458668876355994 2.420753583803498
lowerneck -6.573108385512666 -1.970433621208577 -0.17483135264875305
upperneck 24.50916046662734 -3.056483031805208 2.3806126280168827
head 9.249111809147717 -1.278133255387067 0.5893000253206075
rclavicle 5.191856816325856E-15 2.633768861415963E-15
rhumerus -8.278484249732912 13.79667573777536 -50.794036020402146
rradius 106.60299918171005
rwrist -42.56973982047302
rhand -4.094838343210386 -54.65525638858796
rfingers 7.125020000000006
rthumb 21.672728088594944 -83.26659536830923
lclavicle 1.821567701258139E-15 3.823930447480746E-15
lhumerus -44.48746635266029 -7.522650968266825 85.38153504369353
lradius 61.868398754907915
lwrist 7.196792119820769
lhand -11.691350026385766 -28.960068397581036
lfingers 7.125020000000018
lthumb 14.362245224083146 0.5992471343580625
rfemur 1.2191979939500124 -0.532436779188302 -2.997571281960438
rtibia -4.624885606013443
rfoot 0.9134705986414753 0.6549799966242786
rtoes -0.7459672705596423
lfemur 0.8681819351093987 -6.44644716220027 -10.19233675790794
ltibia 22.313359666945598
lfoot -28.191622038391912 14.331079842932862
ltoes -60.03537817507054
130
root 0 0 0 2.0797509238052743 1.2243794860782158 -1.018556483633264
lowerback 10.989029807732143 -0.2950086669602955 -2.2885654311875454
upperback 2.0085359291822615 -0.6940380119879708 1.1015719478565251
thorax -3.935443702450531 -0.2538146658694086 2.4197649317876686
lowerneck -6.5651989220378715 -1.9709645164132903 -0.17393696069155862
upperneck 24.503986114046327 -3.0571249001332164 2.381887476229601
head 9.24602756091356 -1.278466451118771 0.5896621650689868
rclavicle 5.1512226433415095E-15 2.685570270615086E-15
rhumerus -8.31409379928943 13.81851926896286 -50.82621874663188
rradius 106.60157953656312
rwrist -42.54045473316976
rhand -4.104431203492037 -54.63679264395988
rfingers 7.125020000000007
rthumb 21.663471541460222 -83.2477156826769
lclavicle 1.7727720112370146E-15 3.854762950283971E-15
lhumerus -44.47585614220616 -7.529078687289492 85.3910584048845
lradius 61.866034529622766
lwrist 7.198676411280527
lhand -11.69332550789171 -28.955324646157123
lfingers 7.125020000000018
lthumb 14.360281030028503 0.6033956812786023
rfemur 1.220105023057081 -0.5321741974705612 -2.9964016019601996
rtibia -4.624406720224755
rfoot 0.9126723632042673 0.6548971100444976
rtoes -0.745871277546559
lfemur 0.8572617167199139 -6.439822626940133 -10.184703643206298
ltibia 22.314691420386843
lfoot -28.195304013678918 14.334165194385806
ltoes -60.06278728011607
